<?xml version="1.0" encoding="UTF-8"?>
<svg version="1.1" xmlns="http://www.w3.org/2000/svg" width="512" height="512">
<path d="M0 0 C1.28699287 -0.00382555 2.57398574 -0.00765109 3.8999784 -0.01159257 C7.43335692 -0.02178308 10.96663297 -0.01971395 14.50001955 -0.01541197 C18.32550402 -0.01292848 22.15096483 -0.02197863 25.97644043 -0.02944946 C33.45407346 -0.04215119 40.93167051 -0.04399604 48.40931252 -0.0416492 C54.48778131 -0.03986171 60.56623923 -0.04162487 66.64470673 -0.04587364 C67.51181028 -0.04646883 68.37891383 -0.04706402 69.27229325 -0.04767724 C71.03407973 -0.04888906 72.79586621 -0.05010319 74.55765268 -0.05131962 C91.04990314 -0.06217655 107.5421331 -0.06004074 124.0343847 -0.05393478 C139.11391011 -0.04876057 154.19337103 -0.06003763 169.27288368 -0.07903299 C184.77598493 -0.09841166 200.27905566 -0.10666777 215.7821691 -0.10290974 C224.47842011 -0.1009986 233.17461614 -0.10347732 241.87085724 -0.11762428 C249.26929162 -0.12953898 256.66763713 -0.13094153 264.06607273 -0.11883412 C267.83838221 -0.11294765 271.61052913 -0.11183975 275.38282776 -0.12383652 C279.47572481 -0.13670159 283.56823532 -0.12622639 287.66113281 -0.11352539 C288.84780745 -0.12089968 290.03448208 -0.12827396 291.25711656 -0.13587171 C298.68932699 -0.08734303 305.79438056 0.3695429 311.88128662 5.02241516 C312.39948975 5.65792297 312.91769287 6.29343079 313.45159912 6.94819641 C313.985271 7.5708136 314.51894287 8.19343079 315.06878662 8.83491516 C316.57659912 11.26069641 316.57659912 11.26069641 319.57659912 19.26069641 C328.15659912 19.26069641 336.73659912 19.26069641 345.57659912 19.26069641 C346.23659912 16.62069641 346.89659912 13.98069641 347.57659912 11.26069641 C349.16253662 8.79975891 349.16253662 8.79975891 350.95159912 6.88569641 C351.5368335 6.23858704 352.12206787 5.59147766 352.72503662 4.92475891 C358.09850682 0.09543759 364.08873517 0.8884282 370.98162842 0.89009094 C372.97634341 0.88577805 374.97090315 0.84893984 376.965271 0.81147766 C394.76034816 0.75827863 409.19189253 7.02815006 421.84613037 19.40132141 C433.52169571 31.6280937 438.90332925 45.72890673 438.83056641 62.45710754 C438.83368639 63.56494111 438.83680637 64.67277467 438.8400209 65.81417894 C438.84798007 69.51580705 438.84168525 73.21727029 438.83538818 76.91889954 C438.83809897 79.57702106 438.84158822 82.23513134 438.8460083 84.89324951 C438.85488779 91.35723043 438.85298674 97.82116483 438.84718302 104.28514755 C438.84266085 109.53994558 438.84205603 114.79473061 438.84423065 120.04953003 C438.84453712 120.79825922 438.84484358 121.54698842 438.84515934 122.31840637 C438.84579881 123.83957525 438.84644723 125.36074413 438.84710452 126.88191301 C438.85280358 141.13605575 438.84625657 155.39017273 438.83550379 169.64431125 C438.82656866 181.86720123 438.82812082 194.09005321 438.83734131 206.3129425 C438.84805142 220.51710812 438.8522543 234.72125119 438.84611678 248.92542028 C438.8454797 250.44090112 438.84485096 251.95638195 438.84423065 253.47186279 C438.8439221 254.21745108 438.84361355 254.96303936 438.84329565 255.73122123 C438.84157093 260.97791399 438.84447899 266.22459242 438.84918976 271.47128296 C438.85480683 277.86780833 438.85326479 284.26428462 438.84262827 290.66080439 C438.83738266 293.92256237 438.8363778 297.184222 438.84192657 300.44598198 C438.84739265 303.98549789 438.84053467 307.524784 438.83056641 311.06428528 C438.83502785 312.08997258 438.83948929 313.11565988 438.84408593 314.17242861 C438.76757118 328.1828365 433.96803359 340.81963103 424.57659912 351.26069641 C423.85730225 352.08440735 423.13800537 352.90811829 422.39691162 353.75679016 C411.59020146 365.39614849 397.38959608 372.62002418 381.38142586 373.36251259 C378.86093448 373.41113311 376.34193505 373.43006471 373.82098389 373.43769836 C372.86720856 373.44426956 371.91343323 373.45084076 370.93075562 373.45761108 C367.79317126 373.4772272 364.65563439 373.48897748 361.51800537 373.49897766 C360.44218641 373.50305319 359.36636745 373.50712872 358.25794792 373.51132774 C352.5688382 373.53213372 346.87975225 373.54646178 341.19061279 373.55586243 C335.32522363 373.56694493 329.4602119 373.60138201 323.5949564 373.64103413 C319.07298588 373.66719931 314.55110564 373.67555395 310.02906609 373.67914391 C307.86697768 373.6840062 305.70489321 373.69560993 303.5428791 373.7141819 C300.51548449 373.73858185 297.48907214 373.7376071 294.46160889 373.73066711 C293.57564529 373.74347717 292.6896817 373.75628723 291.77687073 373.76948547 C285.2938572 373.71550081 280.00477872 372.27110559 275.04929447 367.91951466 C271.55586599 364.10563709 271.08674378 361.54620272 269.57659912 356.26069641 C260.00659912 356.26069641 250.43659912 356.26069641 240.57659912 356.26069641 C240.24659912 358.24069641 239.91659912 360.22069641 239.57659912 362.26069641 C237.01051935 367.01269599 234.30196277 369.6569246 229.57659912 372.26069641 C224.75711937 373.63992966 219.82068666 373.40886256 214.8510437 373.40786743 C213.37205591 373.41338246 213.37205591 373.41338246 211.86318958 373.41900891 C208.55557733 373.43003155 205.24799651 373.43388724 201.94036865 373.43769836 C199.56990967 373.44396424 197.19945168 373.45061115 194.82899475 373.45761108 C187.71192614 373.47682792 180.59485697 373.48743923 173.47776967 373.49633887 C170.12053321 373.5007281 166.76329831 373.50609338 163.40606308 373.51132774 C152.23515463 373.52833935 141.06424713 373.54283036 129.89332771 373.55007648 C126.99641036 373.55198618 124.09949301 373.55390654 121.20257568 373.55586243 C120.48261846 373.55634617 119.76266123 373.55682991 119.02088712 373.55732831 C107.37537518 373.5656168 95.72996636 373.59093399 84.08449937 373.6234431 C72.1095252 373.65659747 60.13460326 373.67453291 48.15958297 373.67772073 C41.44376124 373.67987844 34.72811264 373.68896684 28.01233292 373.7141819 C21.68724229 373.73754581 15.36242088 373.74166229 9.0372982 373.73142052 C6.72472803 373.73092702 4.41214424 373.737192 2.0996151 373.75097656 C-19.38187148 373.87178475 -37.78013535 371.20252926 -54.17047119 355.79048157 C-68.84696233 341.11889895 -73.0411982 323.78501956 -73.12007141 303.6268158 C-73.11341633 301.35536051 -73.10627443 299.08390661 -73.09869385 296.81245422 C-73.10880204 294.37951204 -73.12107489 291.94657804 -73.1353302 289.51365662 C-73.16425296 283.62689259 -73.17058137 277.74036749 -73.16635732 271.85355857 C-73.16255756 264.97404313 -73.18624198 258.09469952 -73.21112503 251.21523795 C-73.25477299 238.92375035 -73.2756823 226.63233328 -73.28277588 214.34077454 C-73.28966718 202.46115561 -73.3098329 190.58166881 -73.34625244 178.70210266 C-73.34849122 177.97086541 -73.35073 177.23962815 -73.35303663 176.48623219 C-73.36207192 173.54534364 -73.37113889 170.60445518 -73.38026267 167.6635669 C-73.4173678 155.59109321 -73.44429089 143.51859356 -73.46941614 131.44608974 C-73.47511481 128.71204004 -73.4811673 125.97799147 -73.48752356 123.24394321 C-73.50544396 115.4394688 -73.51763627 107.63501318 -73.52157402 99.83051682 C-73.52346761 97.4781181 -73.52704033 95.12571996 -73.5325222 92.77332687 C-73.55654716 81.91050511 -73.51733974 71.05860238 -73.04989624 60.20423889 C-73.02048128 59.4135398 -72.99106632 58.62284071 -72.96076 57.80818105 C-72.1205929 41.22487022 -63.53310174 26.35082128 -51.42340088 15.26069641 C-35.89138643 3.12467286 -19.40122168 -0.06225718 0 0 Z " fill="#0E2613" transform="translate(73.42340087890625,69.73930358886719)"/>
<path d="M0 0 C0.33 0 0.66 0 1 0 C1 73.59 1 147.18 1 223 C-2.96408771 221.41436492 -5.74498448 219.99426753 -9.2109375 217.65625 C-10.20174316 216.99141602 -11.19254883 216.32658203 -12.21337891 215.64160156 C-13.77838135 214.58150879 -13.77838135 214.58150879 -15.375 213.5 C-16.44540527 212.78038086 -17.51581055 212.06076172 -18.61865234 211.31933594 C-20.76059738 209.87932407 -22.90140677 208.43762137 -25.04101562 206.99414062 C-28.89278785 204.39832581 -32.75750071 201.82229461 -36.625 199.25 C-37.74228441 198.50535372 -38.85947863 197.76057209 -39.9765625 197.015625 C-40.97429687 196.35046875 -41.97203125 195.6853125 -43 195 C-44.05960937 194.27296875 -45.11921875 193.5459375 -46.2109375 192.796875 C-51.28497595 189.52788664 -56.11421412 189.33888209 -62 190 C-66.98669007 192.49334503 -70.49675474 195.99350949 -73 201 C-73.27546634 203.43079213 -73.27546634 203.43079213 -73.3125 206.1875 C-73.34988281 207.10917969 -73.38726562 208.03085937 -73.42578125 208.98046875 C-72.68792455 214.21315896 -70.87096811 217.5280079 -66.76977539 220.75463867 C-64.01603525 222.58815719 -61.21809749 224.30848914 -58.375 226 C-56.46473359 227.16435286 -54.55587098 228.33101204 -52.6484375 229.5 C-51.22845459 230.3667334 -51.22845459 230.3667334 -49.77978516 231.25097656 C-46.2721261 233.45797371 -42.90305316 235.83091428 -39.52685547 238.23242188 C-36.86374263 240.09531433 -34.15781188 241.87445135 -31.4296875 243.640625 C-30.51445312 244.23617187 -29.59921875 244.83171875 -28.65625 245.4453125 C-26.76744759 246.67091182 -24.87403543 247.8894302 -22.9765625 249.1015625 C-22.07421875 249.69195312 -21.171875 250.28234375 -20.2421875 250.890625 C-19.4260498 251.41688477 -18.60991211 251.94314453 -17.76904297 252.48535156 C-17.18525879 252.98518555 -16.60147461 253.48501953 -16 254 C-16 254.99 -16 255.98 -16 257 C-18.84741327 258.6097022 -20.88992641 259.25077032 -24.15437317 259.25828552 C-25.38432762 259.26852753 -25.38432762 259.26852753 -26.63912964 259.27897644 C-27.5301236 259.27642349 -28.42111755 259.27387054 -29.33911133 259.27124023 C-30.2843013 259.27646698 -31.22949127 259.28169373 -32.20332336 259.28707886 C-34.25491997 259.29731647 -36.30654253 259.30309885 -38.35816383 259.30496025 C-41.60760752 259.30862258 -44.85674565 259.32534644 -48.10612488 259.34571838 C-57.34453648 259.40113913 -66.58299338 259.43179727 -75.8215332 259.45629883 C-81.47372383 259.47219266 -87.12569822 259.50243285 -92.77777672 259.54106331 C-94.92947783 259.55269907 -97.08121764 259.55864353 -99.23295021 259.55874443 C-102.24643074 259.55893694 -105.25931705 259.57723814 -108.27270508 259.59936523 C-109.15762634 259.59478806 -110.04254761 259.59021088 -110.95428467 259.585495 C-117.31462644 259.65956709 -122.38587752 260.53525594 -127.1875 265.0625 C-128.84921552 267.75562515 -129.96347193 270.24836624 -131.11328125 273.18359375 C-131.46817627 274.0852124 -131.82307129 274.98683105 -132.1887207 275.91577148 C-132.45644287 276.60356689 -132.72416504 277.2913623 -133 278 C-136.95099928 278.0246985 -140.90196874 278.04285923 -144.85302734 278.05493164 C-146.85906551 278.06244036 -148.86508202 278.0751447 -150.87109375 278.08789062 C-152.75634766 278.09272461 -152.75634766 278.09272461 -154.6796875 278.09765625 C-156.42354736 278.10551147 -156.42354736 278.10551147 -158.20263672 278.11352539 C-161 278 -161 278 -163 277 C-163.494185 275.02326 -163.98565019 273.04572645 -164.453125 271.0625 C-165.62431227 266.64545086 -167.25777238 264.52413152 -170.98661709 261.89097023 C-175.58015115 259.36681569 -179.88304774 259.44351814 -185.02662659 259.49447632 C-186.51770279 259.48534114 -186.51770279 259.48534114 -188.03890175 259.47602141 C-191.36154196 259.46043618 -194.68345984 259.47320423 -198.00610352 259.48583984 C-200.39146375 259.48037855 -202.77682048 259.47313685 -205.16217041 259.46424866 C-210.96325085 259.44691592 -216.76412921 259.44763241 -222.56522483 259.45585893 C-229.32366821 259.46423897 -236.08198922 259.44835844 -242.84040641 259.43054982 C-254.90003395 259.3992351 -266.95962123 259.38420679 -279.01928711 259.38085938 C-280.10106763 259.38055339 -280.10106763 259.38055339 -281.20470231 259.38024123 C-281.92679195 259.38003786 -282.64888158 259.37983449 -283.39285272 259.37962496 C-293.63226924 259.37670438 -303.87167334 259.36989923 -314.11108398 259.35839844 C-315.19199665 259.35719049 -315.19199665 259.35719049 -316.29474593 259.35595815 C-328.31156257 259.3422013 -340.32835702 259.32041174 -352.34515327 259.2945286 C-360.41286627 259.27771722 -368.48048671 259.27261662 -376.54821599 259.27611899 C-381.56344431 259.27655563 -386.57863856 259.26899763 -391.59385681 259.25944328 C-393.92148641 259.25675771 -396.24912288 259.25751692 -398.5767498 259.26195335 C-401.75137287 259.26758633 -404.92574852 259.26105676 -408.10035706 259.2515564 C-409.0236056 259.25621961 -409.94685415 259.26088282 -410.89807993 259.26568735 C-415.66892835 259.23776535 -419.51716348 258.85294059 -424 257 C-424 256.34 -424 255.68 -424 255 C-422.13916016 253.59887695 -422.13916016 253.59887695 -419.5390625 251.98828125 C-418.59160156 251.39466797 -417.64414062 250.80105469 -416.66796875 250.18945312 C-415.66378906 249.57005859 -414.65960938 248.95066406 -413.625 248.3125 C-406.92579432 244.14897497 -400.34844092 239.92491989 -393.97412109 235.27416992 C-392 234 -392 234 -390 234 C-389.31225595 232.67741528 -388.65288627 231.34013497 -388 230 C-387.46375 228.906875 -386.9275 227.81375 -386.375 226.6875 C-384.31845295 221.17221474 -384.20432284 217.77497212 -386.625 212.375 C-388.93685189 208.86763567 -391.06148665 205.70855793 -395 204 C-403.24698232 202.47635786 -409.56628767 203.55763516 -416.421875 208.15625 C-418.90642784 209.88413924 -421.33024933 211.68294054 -423.75 213.5 C-425.62764667 214.8622803 -427.51164803 216.21527614 -429.39776611 217.5657959 C-430.55949713 218.40263231 -431.71504157 219.24814109 -432.86346436 220.10314941 C-436.78723513 223 -436.78723513 223 -439 223 C-439 149.74 -439 76.48 -439 1 C-433.82461958 4.88153532 -429.38655708 8.36015824 -425 12.9375 C-421.13370542 16.89103157 -417.20676063 20.64155216 -412.9921875 24.2265625 C-409.66090124 27.19206046 -406.58257176 30.41029107 -403.44921875 33.58203125 C-400.6895396 36.30649918 -397.80819343 38.83547376 -394.86328125 41.35546875 C-392.99548207 43.00398752 -391.24544376 44.72303581 -389.5 46.5 C-387.16974555 48.87224102 -384.77895594 51.09113517 -382.25 53.25 C-378.84161498 56.18279641 -375.65601186 59.30073288 -372.5 62.5 C-369.4466338 65.59492981 -366.37676221 68.61934357 -363.0625 71.4375 C-358.95888661 74.93441901 -355.21850364 78.75384284 -351.43310547 82.58642578 C-348.01422557 86.03134603 -344.48948006 89.27803038 -340.79296875 92.42578125 C-338.32727676 94.59064808 -336.06006347 96.92986797 -333.76171875 99.26953125 C-332.00558424 100.99451481 -330.18635605 102.59182464 -328.3125 104.1875 C-324.13929477 107.77726683 -320.30778635 111.66326681 -316.44287109 115.57666016 C-312.96582949 119.08028634 -309.39316449 122.40964807 -305.62109375 125.59765625 C-304.00223886 126.99806325 -302.49481669 128.46883518 -301 130 C-302.46341215 133.68860049 -304.27327408 135.14694684 -307.59375 137.25 C-308.53283203 137.85239502 -309.47191406 138.45479004 -310.43945312 139.07543945 C-311.44943359 139.71054443 -312.45941406 140.34564941 -313.5 141 C-315.60467852 142.34685673 -317.70883957 143.69452241 -319.8125 145.04296875 C-320.86050781 145.71118652 -321.90851563 146.3794043 -322.98828125 147.06787109 C-327.19313108 149.76543769 -331.35103633 152.53000545 -335.5 155.3125 C-336.94002501 156.27746189 -338.3801277 157.24230787 -339.8203125 158.20703125 C-340.5102832 158.66932129 -341.20025391 159.13161133 -341.91113281 159.60791016 C-344.03563894 161.02375096 -346.16874674 162.42569769 -348.3046875 163.82421875 C-348.99111328 164.27563232 -349.67753906 164.7270459 -350.38476562 165.19213867 C-351.66483895 166.03332523 -352.94721563 166.87102257 -354.23242188 167.7043457 C-358.83412838 170.73770224 -363.03906289 173.68456641 -365 179 C-365.71669548 185.16171954 -365.68012492 190.79706477 -362 196 C-357.34957834 200.4119385 -353.63730301 201.4496916 -347.2434082 201.33764648 C-338.42944507 200.0110918 -330.10777459 192.93589896 -322.9375 188.0625 C-321.78843633 187.28793329 -320.63892906 186.51402434 -319.48901367 185.74072266 C-317.00842573 184.07204048 -314.5296538 182.40070383 -312.05175781 180.72802734 C-305.40608385 176.24748296 -298.72994053 171.81243177 -292.05838013 167.37057495 C-288.46111453 164.97508632 -284.86536637 162.57732262 -281.26953125 160.1796875 C-280.04663831 159.3644094 -278.82373871 158.54914128 -277.60083008 157.73388672 C-276.74255615 157.1617041 -275.88428223 156.58952148 -275 156 C-271.12050284 157.79532109 -268.73038706 160.10067055 -265.75 163.1875 C-261.91863956 167.11087443 -257.99870404 170.83426836 -253.82421875 174.390625 C-251.9779924 176.0194157 -250.27339145 177.7303823 -248.5625 179.5 C-240.73391388 187.41774997 -232.1355329 193.97382861 -220.625 194.375 C-204.83109724 194.03453264 -196.56646247 185.59600655 -186.00097656 174.98876953 C-183.1772566 172.18227578 -180.25796594 169.49002447 -177.3125 166.8125 C-176.42175781 165.99394531 -175.53101563 165.17539062 -174.61328125 164.33203125 C-171.79481953 161.81690173 -168.91467087 159.40257643 -166 157 C-162.57214439 158.27190879 -159.65261585 159.73782735 -156.62451172 161.78149414 C-155.79370087 162.33869644 -154.96289001 162.89589874 -154.10690308 163.46998596 C-153.22342194 164.06899216 -152.3399408 164.66799835 -151.4296875 165.28515625 C-150.51164337 165.90144394 -149.59359924 166.51773163 -148.6477356 167.1526947 C-145.7205098 169.11824044 -142.79740381 171.0897933 -139.875 173.0625 C-136.945184 175.038361 -134.0144688 177.01281928 -131.08084106 178.98301697 C-129.25666334 180.20824942 -127.43470959 181.43680076 -125.61520386 182.66896057 C-124.37844406 183.50003578 -124.37844406 183.50003578 -123.11669922 184.34790039 C-122.39231659 184.83706436 -121.66793396 185.32622833 -120.92160034 185.83021545 C-116.8147071 188.33030881 -112.67422805 188.48117053 -108 188 C-103.37555842 186.45851947 -100.05169908 184.84288033 -97 181 C-95.34318074 177.47025461 -94.65733016 174.51861461 -94.5625 170.625 C-94.52253906 169.73039063 -94.48257812 168.83578125 -94.44140625 167.9140625 C-95.5102637 162.33806492 -98.71033175 158.94021987 -103.21484375 155.65625 C-104.44823702 154.92471789 -105.68964904 154.20658769 -106.9375 153.5 C-114.14451602 149.21759523 -121.08970972 144.62089724 -128 139.875 C-128.98605225 139.19888672 -129.97210449 138.52277344 -130.98803711 137.82617188 C-133.32715387 136.22003213 -135.66453588 134.61144441 -138 133 C-137.15520423 128.37000006 -134.35238947 126.2363097 -130.9375 123.25 C-129.74358872 122.17972581 -128.5508777 121.10811119 -127.359375 120.03515625 C-126.77994141 119.5158252 -126.20050781 118.99649414 -125.60351562 118.46142578 C-123.56299078 116.6017148 -121.61812111 114.66059477 -119.6875 112.6875 C-117.23265275 110.19156744 -114.71835241 107.84340854 -112.0625 105.5625 C-109.07198284 102.99334729 -106.26883316 100.30682744 -103.5 97.5 C-100.13885518 94.0928121 -96.66298797 90.92541826 -93.03125 87.8125 C-90.76361428 85.7890712 -88.6342305 83.66346653 -86.5 81.5 C-83.77170593 78.73439592 -81.01483166 76.08712969 -78.0625 73.5625 C-74.8896408 70.84380752 -71.93661618 67.97248325 -69 65 C-65.47893677 61.43599698 -61.86813992 58.09695832 -58.0625 54.84375 C-54.70964151 51.84649772 -51.60106244 48.60840366 -48.44140625 45.41015625 C-45.72797273 42.73145468 -42.89222977 40.25391882 -39.99609375 37.77734375 C-36.93333273 35.05022777 -34.09776507 32.10595363 -31.21875 29.1875 C-28.59228878 26.59803119 -25.83023542 24.21163036 -23.03125 21.8125 C-19.96573669 19.07711889 -17.12246143 16.13106194 -14.23828125 13.20703125 C-11.50472641 10.51164122 -8.6410281 8.0042671 -5.7265625 5.5078125 C-4.28635522 4.25007492 -2.91455414 2.91455414 -1.5625 1.5625 C-1.046875 1.046875 -0.53125 0.53125 0 0 Z " fill="#A9F8C2" transform="translate(476,148)"/>
<path d="M0 0 C3.93245085 -0.12368591 7.86414798 -0.21437336 11.7980957 -0.2746582 C13.79353555 -0.31214374 15.78843052 -0.37567535 17.78320312 -0.43945312 C19.66362305 -0.46362305 19.66362305 -0.46362305 21.58203125 -0.48828125 C22.73936768 -0.51446533 23.8967041 -0.54064941 25.08911133 -0.56762695 C28 0 28 0 29.81518555 2.33911133 C30.4016687 3.65625122 30.4016687 3.65625122 31 5 C33.3568948 10.24944752 35.78167525 13.39083763 41 16 C42.46486393 16.10492984 43.93387063 16.15520694 45.40234375 16.17578125 C64.32446568 16.63175673 64.32446568 16.63175673 73 21 C71.40584497 24.91209308 68.86106668 27.37218086 65.875 30.3125 C65.38217529 30.79887939 64.88935059 31.28525879 64.3815918 31.78637695 C60.99532634 35.10222129 57.49809919 38.24907625 53.89453125 41.32421875 C51.13064629 43.76897472 48.58015483 46.41081552 45.9921875 49.0390625 C44.09672926 50.90478806 42.14553265 52.64659255 40.125 54.375 C36.93317491 57.11621449 33.95697023 60.00685888 31 63 C27.43640017 66.60719127 23.78075144 69.99477889 19.9296875 73.2890625 C17.86691479 75.11799863 15.9340928 77.03580458 14 79 C11.46027814 81.5792506 8.87548686 84.02217389 6.125 86.375 C2.93317491 89.11621449 -0.04302977 92.00685888 -3 95 C-6.52106323 98.56400302 -10.13186008 101.90304168 -13.9375 105.15625 C-16.38924689 107.34796313 -18.68885573 109.66067104 -21 112 C-23.89591958 114.93118191 -26.80242571 117.76403174 -29.9375 120.4375 C-33.28925073 123.30172335 -36.40556756 126.36333716 -39.5 129.5 C-43.18994588 133.24030338 -46.97503698 136.7823935 -50.97265625 140.19140625 C-54.31743054 143.17528004 -57.41335157 146.40619732 -60.5625 149.59375 C-63.25283906 152.24959753 -66.06573525 154.70135432 -68.9375 157.15625 C-72.28762254 160.15105651 -75.39376306 163.38633596 -78.55078125 166.58203125 C-81.3104604 169.30649918 -84.19180657 171.83547376 -87.13671875 174.35546875 C-89.00451793 176.00398752 -90.75455624 177.72303581 -92.5 179.5 C-94.83025445 181.87224102 -97.22104406 184.09113517 -99.75 186.25 C-103.15838415 189.18279566 -106.34400214 192.30071741 -109.5 195.5 C-113.22785242 199.27891015 -117.04555305 202.87035648 -121.09375 206.3046875 C-123.90990061 208.80921489 -126.47282773 211.54667224 -129.04296875 214.30078125 C-131.24263569 216.21067171 -133.29166039 216.98190458 -136 218 C-136.47308594 217.52167725 -136.94617188 217.04335449 -137.43359375 216.55053711 C-139.61964406 214.3434466 -141.80979129 212.14046367 -144 209.9375 C-144.74378906 209.18533203 -145.48757812 208.43316406 -146.25390625 207.65820312 C-150.45428915 203.43955769 -154.74117194 199.40781499 -159.25390625 195.52563477 C-161.44131977 193.61440055 -163.47787953 191.58433956 -165.5 189.5 C-168.20803565 186.75499458 -170.94169249 184.1272909 -173.875 181.625 C-177.24557765 178.73785181 -180.38503521 175.65752622 -183.5 172.5 C-186.55337286 169.40507759 -189.62323732 166.38065683 -192.9375 163.5625 C-197.04347737 160.06356651 -200.78581002 156.24167411 -204.57348633 152.40698242 C-207.92566643 149.0293548 -211.38205648 145.85758681 -215.0078125 142.7734375 C-218.34457769 139.80306221 -221.42778176 136.57918589 -224.56640625 133.40234375 C-226.63242365 131.36285627 -228.73005549 129.444922 -230.9375 127.5625 C-234.80617798 124.25653882 -238.36064305 120.66855322 -241.93115234 117.04931641 C-245.15350409 113.80015827 -248.49331816 110.77563666 -251.97265625 107.80859375 C-255.3160617 104.8259411 -258.4107637 101.59643308 -261.55859375 98.41015625 C-264.27202727 95.73145468 -267.10777023 93.25391882 -270.00390625 90.77734375 C-273.06666727 88.05022777 -275.90223493 85.10595363 -278.78125 82.1875 C-280.79430632 80.20279658 -282.85446403 78.33903084 -285 76.5 C-288.79078785 73.25075327 -292.26878424 69.74813968 -295.7734375 66.1953125 C-298.44633174 63.55993257 -301.25368303 61.12233511 -304.1015625 58.6796875 C-305.97970753 57.01795424 -307.74305516 55.28874475 -309.5 53.5 C-311.81019441 51.148274 -314.17782188 48.94960735 -316.6875 46.8125 C-320.85969337 43.22360357 -324.69415953 39.34137071 -328.55273438 35.42333984 C-332.06650924 31.87478623 -335.69747761 28.55671077 -339.57421875 25.40234375 C-341 24 -341 24 -342 21 C-334.1495493 17.0842417 -327.37777862 16.43273619 -318.68939209 16.50793457 C-317.37834448 16.50325558 -316.06729687 16.49857659 -314.71652055 16.49375582 C-311.10203431 16.48131894 -307.48799633 16.49348966 -303.87354136 16.50983071 C-299.96625702 16.52305784 -296.05902362 16.51302592 -292.1517334 16.50572205 C-285.38890824 16.49606163 -278.62621215 16.50048228 -271.86339569 16.5141449 C-262.07909075 16.53354068 -252.29493035 16.52705389 -242.51062158 16.51357108 C-226.62588902 16.49201013 -210.74119064 16.48527187 -194.85644531 16.49072266 C-193.43179354 16.49120361 -193.43179354 16.49120361 -191.97836092 16.49169427 C-185.23557377 16.49406783 -178.49278689 16.49697284 -171.75 16.5 C-164.04069022 16.50346013 -156.33138044 16.50667807 -148.62207031 16.50927734 C-147.19734192 16.50976561 -147.19734192 16.50976561 -145.74383113 16.51026374 C-129.91199108 16.5152042 -114.08019849 16.50453786 -98.24837327 16.48270559 C-88.48665444 16.47000366 -78.72513108 16.47146457 -68.96342281 16.49115646 C-62.27942976 16.50375248 -55.59553598 16.5023125 -48.9115431 16.48978293 C-45.05451724 16.48306346 -41.19778101 16.48298647 -37.34078217 16.5003643 C-33.16120027 16.51907541 -28.98226992 16.5070533 -24.80267334 16.49206543 C-23.58186813 16.50255433 -22.36106292 16.51304322 -21.10326362 16.52384996 C-14.78423024 16.47320145 -10.74581762 16.35745757 -6 12 C-2.99566955 8.16113332 -1.46379522 4.6096709 0 0 Z " fill="#81F6A2" transform="translate(391,89)"/>
<path d="M0 0 C99.33 0 198.66 0 301 0 C299.15876565 3.6824687 298.06487977 5.11003804 295.0625 7.6875 C294.02802734 8.59048828 294.02802734 8.59048828 292.97265625 9.51171875 C291 11 291 11 288 12 C287.32646353 13.32987625 286.66093401 14.66381571 286 16 C284.07421875 17.9375 284.07421875 17.9375 281.6875 20 C277.4720733 23.70075251 273.30748362 27.44385821 269.1875 31.25 C268.37962036 31.9925 268.37962036 31.9925 267.55541992 32.75 C263.53209496 36.46211132 259.66402866 40.30908398 255.82421875 44.2109375 C251.62008757 48.46886926 247.33787463 52.53844977 242.7890625 56.42578125 C241.15068335 57.86741181 239.63378081 59.36254459 238.125 60.9375 C236 63 236 63 234 63 C233.67 63.99 233.34 64.98 233 66 C231.43359375 67.54296875 231.43359375 67.54296875 229.4375 69.1875 C226.48987358 71.68326212 223.70425934 74.24219097 221 77 C217.80791301 80.24196335 214.47869992 83.2346303 211.0234375 86.19140625 C208.08779532 88.81534897 205.37877667 91.64618465 202.6640625 94.49609375 C201 96 201 96 199 96 C199 96.66 199 97.32 199 98 C197.4609375 99.515625 197.4609375 99.515625 195.375 101.25 C192.65952241 103.54660073 190.08737736 105.87150775 187.625 108.4375 C185 111 185 111 183 111 C182.74476563 111.59296875 182.48953125 112.1859375 182.2265625 112.796875 C180.87376259 115.2267449 179.51658724 116.49236266 177.375 118.25 C174.44647906 120.72391299 171.6842771 123.26267394 169 126 C166.36773461 128.67880839 163.67142735 131.18981611 160.8125 133.625 C157.4594948 136.50183878 154.71617412 139.51990191 152 143 C148.6619951 141.55774399 146.56156534 139.74778144 144.0625 137.125 C141.18331567 134.16583832 138.25212147 131.54896007 135 129 C132.43646945 126.47544204 129.91376039 123.91260022 127.38671875 121.3515625 C121.39123343 115.2809371 121.39123343 115.2809371 115.0625 109.5625 C110.95573465 106.06289503 107.21275194 102.24017991 103.42431641 98.40478516 C100.10081489 95.05608173 96.67619623 91.91320016 93.078125 88.859375 C89.35801711 85.53085741 85.90680005 81.92303249 82.41796875 78.35546875 C80.0376692 75.89275734 80.0376692 75.89275734 77 74 C77 73.34 77 72.68 77 72 C76.43023437 71.75894531 75.86046875 71.51789063 75.2734375 71.26953125 C72.55716666 69.75271334 70.77554863 67.93237093 68.625 65.6875 C66.08217891 63.08215053 63.57863304 60.5436843 60.75 58.25 C57.9766328 55.98088138 55.53244478 53.53244478 53 51 C51.84111418 49.99099318 50.67397352 48.99141176 49.5 48 C46.51082861 45.47020344 43.73462499 42.8065888 41 40 C39.63875 38.700625 39.63875 38.700625 38.25 37.375 C36 35 36 35 35 32 C34.360625 31.855625 33.72125 31.71125 33.0625 31.5625 C32.381875 31.376875 31.70125 31.19125 31 31 C30.3162955 29.67532254 29.65035814 28.34136367 29 27 C28.4225 26.71125 27.845 26.4225 27.25 26.125 C23.91288084 24.45644042 21.35197658 21.88509128 19 19 C19 18.34 19 17.68 19 17 C18.40525879 16.72744385 17.81051758 16.4548877 17.19775391 16.17407227 C15.05990011 15.03199951 13.58388243 13.87707268 11.8359375 12.21484375 C10.98902344 11.41916992 10.98902344 11.41916992 10.125 10.60742188 C9.5475 10.05634766 8.97 9.50527344 8.375 8.9375 C4.50673691 5.03429271 4.50673691 5.03429271 0 2 C0 1.34 0 0.68 0 0 Z " fill="#AAF9C2" transform="translate(106,132)"/>
<path d="M0 0 C0.44085938 0.68320312 0.88171875 1.36640625 1.3359375 2.0703125 C5.17516627 6.29233828 9.78244943 8.91030437 14.625 11.875 C21.03167456 15.84103663 27.32835599 19.87454153 33.47314453 24.23681641 C36.13751258 26.09595322 38.84333956 27.87472474 41.5703125 29.640625 C42.48554688 30.23617188 43.40078125 30.83171875 44.34375 31.4453125 C46.23255241 32.67091182 48.12596457 33.8894302 50.0234375 35.1015625 C50.92578125 35.69195312 51.828125 36.28234375 52.7578125 36.890625 C53.5739502 37.41688477 54.39008789 37.94314453 55.23095703 38.48535156 C55.81474121 38.98518555 56.39852539 39.48501953 57 40 C57 40.99 57 41.98 57 43 C54.15258673 44.6097022 52.11007359 45.25077032 48.84562683 45.25828552 C47.61567238 45.26852753 47.61567238 45.26852753 46.36087036 45.27897644 C45.4698764 45.27642349 44.57888245 45.27387054 43.66088867 45.27124023 C42.7156987 45.27646698 41.77050873 45.28169373 40.79667664 45.28707886 C38.74508003 45.29731647 36.69345747 45.30309885 34.64183617 45.30496025 C31.39239248 45.30862258 28.14325435 45.32534644 24.89387512 45.34571838 C15.65546352 45.40113913 6.41700662 45.43179727 -2.8215332 45.45629883 C-8.47372383 45.47219266 -14.12569822 45.50243285 -19.77777672 45.54106331 C-21.92947783 45.55269907 -24.08121764 45.55864353 -26.23295021 45.55874443 C-29.24643074 45.55893694 -32.25931705 45.57723814 -35.27270508 45.59936523 C-36.15762634 45.59478806 -37.04254761 45.59021088 -37.95428467 45.585495 C-44.31462644 45.65956709 -49.38587752 46.53525594 -54.1875 51.0625 C-55.84921552 53.75562515 -56.96347193 56.24836624 -58.11328125 59.18359375 C-58.46817627 60.0852124 -58.82307129 60.98683105 -59.1887207 61.91577148 C-59.45644287 62.60356689 -59.72416504 63.2913623 -60 64 C-63.95099928 64.0246985 -67.90196874 64.04285923 -71.85302734 64.05493164 C-73.85906551 64.06244036 -75.86508202 64.0751447 -77.87109375 64.08789062 C-79.75634766 64.09272461 -79.75634766 64.09272461 -81.6796875 64.09765625 C-83.42354736 64.10551147 -83.42354736 64.10551147 -85.20263672 64.11352539 C-88 64 -88 64 -90 63 C-90.494185 61.02326 -90.98565019 59.04572645 -91.453125 57.0625 C-92.62431227 52.64545086 -94.25777238 50.52413152 -97.98661709 47.89097023 C-102.58015115 45.36681569 -106.88304774 45.44351814 -112.02662659 45.49447632 C-113.02067739 45.4883862 -114.01472819 45.48229608 -115.03890175 45.47602141 C-118.36154196 45.46043618 -121.68345984 45.47320423 -125.00610352 45.48583984 C-127.39146375 45.48037855 -129.77682048 45.47313685 -132.16217041 45.46424866 C-137.96325085 45.44691592 -143.76412921 45.44763241 -149.56522483 45.45585893 C-156.32366821 45.46423897 -163.08198922 45.44835844 -169.84040641 45.43054982 C-181.90003395 45.3992351 -193.95962123 45.38420679 -206.01928711 45.38085938 C-207.10106763 45.38055339 -207.10106763 45.38055339 -208.20470231 45.38024123 C-209.28783676 45.37993618 -209.28783676 45.37993618 -210.39285272 45.37962496 C-220.63226924 45.37670438 -230.87167334 45.36989923 -241.11108398 45.35839844 C-242.19199665 45.35719049 -242.19199665 45.35719049 -243.29474593 45.35595815 C-255.31156257 45.3422013 -267.32835702 45.32041174 -279.34515327 45.2945286 C-287.41286627 45.27771722 -295.48048671 45.27261662 -303.54821599 45.27611899 C-308.56344431 45.27655563 -313.57863856 45.26899763 -318.59385681 45.25944328 C-320.92148641 45.25675771 -323.24912288 45.25751692 -325.5767498 45.26195335 C-328.75137287 45.26758633 -331.92574852 45.26105676 -335.10035706 45.2515564 C-336.0236056 45.25621961 -336.94685415 45.26088282 -337.89807993 45.26568735 C-342.66892835 45.23776535 -346.51716348 44.85294059 -351 43 C-351 42.34 -351 41.68 -351 41 C-349.13916016 39.59887695 -349.13916016 39.59887695 -346.5390625 37.98828125 C-345.59160156 37.39466797 -344.64414062 36.80105469 -343.66796875 36.18945312 C-342.66378906 35.57005859 -341.65960938 34.95066406 -340.625 34.3125 C-333.92579432 30.14897497 -327.34844092 25.92491989 -320.97412109 21.27416992 C-319 20 -319 20 -317 20 C-316.505 18.515 -316.505 18.515 -316 17 C-315.34 17.66 -314.68 18.32 -314 19 C-311.28030179 19.19681303 -308.66219857 19.26750585 -305.94134521 19.2515564 C-305.09857442 19.25452654 -304.25580363 19.25749667 -303.38749433 19.26055682 C-300.54699857 19.26823094 -297.70670752 19.26168885 -294.86621094 19.25537109 C-292.83626667 19.25811942 -290.80632349 19.26179835 -288.77638245 19.26634216 C-284.39636534 19.27447046 -280.01639935 19.27661852 -275.63637543 19.27439499 C-268.711907 19.271569 -261.7875412 19.28588756 -254.86309814 19.30337524 C-235.1696528 19.35046931 -215.47621396 19.37434287 -195.78271484 19.38085938 C-184.91275884 19.38460812 -174.04291846 19.40262454 -163.17301202 19.43595374 C-156.28858295 19.45619648 -149.40445151 19.45852358 -142.52000475 19.44767356 C-138.23564967 19.4450686 -133.95146824 19.45906043 -129.66715813 19.47775459 C-127.67978739 19.48308268 -125.6923848 19.4815693 -123.70502663 19.47271919 C-120.99179801 19.46161116 -118.27974601 19.47501432 -115.56658936 19.49447632 C-114.38671184 19.48078933 -114.38671184 19.48078933 -113.18299842 19.46682584 C-107.96976058 19.53959268 -105.02696688 20.72259195 -101 24 C-98 27.4 -98 27.4 -98 30 C-97.401875 30.2475 -96.80375 30.495 -96.1875 30.75 C-92.64241996 32.77576002 -91.27335281 35.17994156 -90 39 C-90 41.97 -90 44.94 -90 48 C-79.77 48 -69.54 48 -59 48 C-59 45.03 -59 42.06 -59 39 C-57.8984375 36.51171875 -57.8984375 36.51171875 -56.375 34.6875 C-55.88773437 34.07261719 -55.40046875 33.45773437 -54.8984375 32.82421875 C-49.58472431 27.71824332 -45.87909778 26.5527189 -38.65234375 26.6484375 C-37.65332031 26.68195313 -36.65429688 26.71546875 -35.625 26.75 C-34.60277344 26.76804687 -33.58054687 26.78609375 -32.52734375 26.8046875 C-30.01725251 26.85160509 -27.50912236 26.91723271 -25 27 C-24.62875 26.1028125 -24.62875 26.1028125 -24.25 25.1875 C-22.77850013 22.61237523 -21.56660941 21.47953128 -19 20 C-16.52636719 19.65942383 -16.52636719 19.65942383 -13.796875 19.70703125 C-12.32734375 19.7215332 -12.32734375 19.7215332 -10.828125 19.73632812 C-9.30445313 19.7740332 -9.30445313 19.7740332 -7.75 19.8125 C-6.203125 19.83280273 -6.203125 19.83280273 -4.625 19.85351562 C-2.08280208 19.88882393 0.45833223 19.93813964 3 20 C3 19.34 3 18.68 3 18 C2.38125 17.896875 1.7625 17.79375 1.125 17.6875 C-1 17 -1 17 -3 14 C-3.46706347 8.30182562 -3.00943022 5.01571703 0 0 Z " fill="#83F6A3" transform="translate(403,362)"/>
<path d="M0 0 C0.33 0 0.66 0 1 0 C1 73.59 1 147.18 1 223 C-2.96408771 221.41436492 -5.74498448 219.99426753 -9.2109375 217.65625 C-10.20174316 216.99141602 -11.19254883 216.32658203 -12.21337891 215.64160156 C-13.77838135 214.58150879 -13.77838135 214.58150879 -15.375 213.5 C-16.44540527 212.78038086 -17.51581055 212.06076172 -18.61865234 211.31933594 C-20.76059738 209.87932407 -22.90140677 208.43762137 -25.04101562 206.99414062 C-28.89278785 204.39832581 -32.75750071 201.82229461 -36.625 199.25 C-37.74228441 198.50535372 -38.85947863 197.76057209 -39.9765625 197.015625 C-41.47316406 196.01789063 -41.47316406 196.01789063 -43 195 C-44.05960937 194.27296875 -45.11921875 193.5459375 -46.2109375 192.796875 C-49.96619197 190.37752338 -52.62384429 189.86197573 -57 189.875 C-57.86625 189.87242187 -58.7325 189.86984375 -59.625 189.8671875 C-62.15011695 189.90405795 -62.15011695 189.90405795 -65 191 C-66.31795116 187.37563432 -66.04181364 186.09366256 -64.4375 182.5 C-59.94219239 175.62924556 -59.94219239 175.62924556 -56 174 C-51.29315023 173.48535583 -46.70311424 173.4271848 -42 174 C-41.34 174.66 -40.68 175.32 -40 176 C-37.93125966 176.6425235 -37.93125966 176.6425235 -36 177 C-36 177.66 -36 178.32 -36 179 C-35.2575 179.28875 -34.515 179.5775 -33.75 179.875 C-31.4551718 180.81379336 -29.21766895 181.89116553 -27 183 C-27 138.12 -27 93.24 -27 47 C-33.81661417 52.57722978 -39.94279783 57.89480214 -46.05078125 64.0859375 C-51.23202502 69.31764537 -56.38944898 74.48061684 -62.01953125 79.234375 C-65.48947379 82.3278938 -68.67561807 85.71105221 -71.8984375 89.05859375 C-74 91 -74 91 -76 91 C-76 91.66 -76 92.32 -76 93 C-77.46875 94.48046875 -77.46875 94.48046875 -79.5 96.1875 C-80.22832031 96.80753906 -80.95664062 97.42757812 -81.70703125 98.06640625 C-82.46371094 98.70449219 -83.22039062 99.34257812 -84 100 C-85.39902085 101.20464136 -86.79498261 102.41284677 -88.1875 103.625 C-89.10595703 104.41777344 -89.10595703 104.41777344 -90.04296875 105.2265625 C-92.95772993 107.86788301 -95.69445961 110.67850374 -98.45825195 113.47607422 C-99.991668 115.02704186 -101.52705795 116.57603834 -103.0625 118.125 C-103.57876953 118.64964844 -104.09503906 119.17429687 -104.62695312 119.71484375 C-107.27685063 122.38161959 -109.91028006 124.8512739 -113 127 C-112.87822312 128.91466367 -112.87822312 128.91466367 -112 131 C-108.8843916 133.25016162 -105.59147806 134.66602243 -102 136 C-102 136.66 -102 137.32 -102 138 C-101.401875 138.268125 -100.80375 138.53625 -100.1875 138.8125 C-96.68911463 140.71162349 -95.26654546 142.20036361 -94 146 C-93.85502877 148.1634168 -93.77929825 150.33192931 -93.75 152.5 C-93.72421875 153.6446875 -93.6984375 154.789375 -93.671875 155.96875 C-94 159 -94 159 -95.515625 160.90625 C-96.00546875 161.2671875 -96.4953125 161.628125 -97 162 C-97.65250732 161.29335205 -98.30501465 160.5867041 -98.97729492 159.85864258 C-102.40096648 156.44217196 -106.33152321 153.90402239 -110.36328125 151.26171875 C-111.15526413 150.73608841 -111.94724701 150.21045807 -112.76322937 149.66889954 C-115.27607215 148.00294758 -117.79416231 146.34513086 -120.3125 144.6875 C-122.02444229 143.55457082 -123.73603471 142.42111277 -125.44726562 141.28710938 C-129.62748592 138.51860215 -133.81242905 135.75737489 -138 133 C-137.15520423 128.37000006 -134.35238947 126.2363097 -130.9375 123.25 C-129.74358872 122.17972581 -128.5508777 121.10811119 -127.359375 120.03515625 C-126.49022461 119.25615967 -126.49022461 119.25615967 -125.60351562 118.46142578 C-123.56299078 116.6017148 -121.61812111 114.66059477 -119.6875 112.6875 C-117.23265275 110.19156744 -114.71835241 107.84340854 -112.0625 105.5625 C-109.07198284 102.99334729 -106.26883316 100.30682744 -103.5 97.5 C-100.13885518 94.0928121 -96.66298797 90.92541826 -93.03125 87.8125 C-90.76361428 85.7890712 -88.6342305 83.66346653 -86.5 81.5 C-83.77170593 78.73439592 -81.01483166 76.08712969 -78.0625 73.5625 C-74.8896408 70.84380752 -71.93661618 67.97248325 -69 65 C-65.47893677 61.43599698 -61.86813992 58.09695832 -58.0625 54.84375 C-54.70964151 51.84649772 -51.60106244 48.60840366 -48.44140625 45.41015625 C-45.72797273 42.73145468 -42.89222977 40.25391882 -39.99609375 37.77734375 C-36.93333273 35.05022777 -34.09776507 32.10595363 -31.21875 29.1875 C-28.59228878 26.59803119 -25.83023542 24.21163036 -23.03125 21.8125 C-19.96573669 19.07711889 -17.12246143 16.13106194 -14.23828125 13.20703125 C-11.50472641 10.51164122 -8.6410281 8.0042671 -5.7265625 5.5078125 C-4.28635522 4.25007492 -2.91455414 2.91455414 -1.5625 1.5625 C-1.046875 1.046875 -0.53125 0.53125 0 0 Z " fill="#82F5A2" transform="translate(476,148)"/>
<path d="M0 0 C5.17538042 3.88153532 9.61344292 7.36015824 14 11.9375 C17.86629458 15.89103157 21.79323937 19.64155216 26.0078125 23.2265625 C29.33909876 26.19206046 32.41742824 29.41029107 35.55078125 32.58203125 C38.3104604 35.30649918 41.19180657 37.83547376 44.13671875 40.35546875 C46.00451793 42.00398752 47.75455624 43.72303581 49.5 45.5 C51.83025445 47.87224102 54.22104406 50.09113517 56.75 52.25 C60.15838502 55.18279641 63.34398814 58.30073288 66.5 61.5 C69.5533662 64.59492981 72.62323779 67.61934357 75.9375 70.4375 C80.04111339 73.93441901 83.78149636 77.75384284 87.56689453 81.58642578 C90.98577443 85.03134603 94.51051994 88.27803038 98.20703125 91.42578125 C100.67272324 93.59064808 102.93993653 95.92986797 105.23828125 98.26953125 C106.99441576 99.99451481 108.81364395 101.59182464 110.6875 103.1875 C114.86070523 106.77726683 118.69221365 110.66326681 122.55712891 114.57666016 C126.03417051 118.08028634 129.60683551 121.40964807 133.37890625 124.59765625 C134.99776114 125.99806325 136.50518331 127.46883518 138 129 C136.53658785 132.68860049 134.72672592 134.14694684 131.40625 136.25 C130.46716797 136.85239502 129.52808594 137.45479004 128.56054688 138.07543945 C127.55056641 138.71054443 126.54058594 139.34564941 125.5 140 C123.39532148 141.34685673 121.29116043 142.69452241 119.1875 144.04296875 C118.13949219 144.71118652 117.09148437 145.3794043 116.01171875 146.06787109 C111.80686892 148.76543769 107.64896367 151.53000545 103.5 154.3125 C102.05997499 155.27746189 100.6198723 156.24230787 99.1796875 157.20703125 C98.4897168 157.66932129 97.79974609 158.13161133 97.08886719 158.60791016 C94.96436106 160.02375096 92.83125326 161.42569769 90.6953125 162.82421875 C90.00888672 163.27563232 89.32246094 163.7270459 88.61523438 164.19213867 C87.33516105 165.03332523 86.05278437 165.87102257 84.76757812 166.7043457 C79.94282244 169.88473197 76.34831614 173.31235741 73 178 C70.97240702 175.97240702 71.49740155 172.09588474 71.3125 169.3125 C71.25255859 168.60416016 71.19261719 167.89582031 71.13085938 167.16601562 C70.7783862 161.9368588 71.0141689 157.46093585 74.453125 153.19921875 C80.34545619 148.2419749 86.73672521 144.14555916 93.26025391 140.08447266 C95.8511736 138.46941999 98.42512432 136.82797332 101 135.1875 C101.87527344 134.63320313 102.75054687 134.07890625 103.65234375 133.5078125 C105.64840556 132.22581606 107.60944613 130.90846002 109.5625 129.5625 C112 128 112 128 114 128 C113.06725891 126.87105124 112.12859878 125.74699124 111.1875 124.625 C110.66542969 123.99851562 110.14335937 123.37203125 109.60546875 122.7265625 C107.91774261 120.7778952 107.91774261 120.7778952 105 119 C105 118.34 105 117.68 105 117 C104.43152344 116.74863281 103.86304688 116.49726563 103.27734375 116.23828125 C97.06892278 112.86251891 91.89904381 107.02151991 87 102 C82.12987924 97.03567961 77.23304658 92.19719326 71.921875 87.703125 C69.51179089 85.5673594 67.27694549 83.27694549 65 81 C63.17446107 79.32479957 61.34063756 77.65859648 59.5 76 C54.37027304 71.34685785 49.46569257 66.50371436 44.59814453 61.57861328 C41.05732028 58.01195145 37.43129919 54.60803819 33.5859375 51.3671875 C31.96527743 49.97006675 30.42516042 48.59790714 29 47 C29 46.34 29 45.68 29 45 C28.34 45 27.68 45 27 45 C27 91.53 27 138.06 27 186 C30.63 186.33 34.26 186.66 38 187 C42.70643195 189.6035581 44.78054312 193.23227781 47 198 C47.25 201.4375 47.25 201.4375 47 204 C46.01 203.67 45.02 203.34 44 203 C33.45298465 201.39525618 27.20981061 203.76207165 18.9140625 209.75390625 C17.69184342 210.66811565 16.47049764 211.58349368 15.25 212.5 C13.37235333 213.8622803 11.48835197 215.21527614 9.60223389 216.5657959 C8.44050287 217.40263231 7.28495843 218.24814109 6.13653564 219.10314941 C2.21276487 222 2.21276487 222 0 222 C0 148.74 0 75.48 0 0 Z " fill="#82F6A3" transform="translate(37,149)"/>
<path d="M0 0 C3.87949716 1.79532109 6.26961294 4.10067055 9.25 7.1875 C13.08136044 11.11087443 17.00129596 14.83426836 21.17578125 18.390625 C23.0220076 20.0194157 24.72660855 21.7303823 26.4375 23.5 C34.26608612 31.41774997 42.8644671 37.97382861 54.375 38.375 C70.16890276 38.03453264 78.43353753 29.59600655 88.99902344 18.98876953 C91.8227434 16.18227578 94.74203406 13.49002447 97.6875 10.8125 C98.57824219 9.99394531 99.46898437 9.17539062 100.38671875 8.33203125 C103.20518047 5.81690173 106.08532913 3.40257643 109 1 C112.42785561 2.27190879 115.34738415 3.73782735 118.37548828 5.78149414 C119.62170456 6.61729759 119.62170456 6.61729759 120.89309692 7.46998596 C121.77657806 8.06899216 122.6600592 8.66799835 123.5703125 9.28515625 C124.48835663 9.90144394 125.40640076 10.51773163 126.3522644 11.1526947 C129.2794902 13.11824044 132.20259619 15.0897933 135.125 17.0625 C138.054816 19.038361 140.9855312 21.01281928 143.91915894 22.98301697 C145.74333666 24.20824942 147.56529041 25.43680076 149.38479614 26.66896057 C150.20930267 27.22301071 151.0338092 27.77706085 151.88330078 28.34790039 C152.60768341 28.83706436 153.33206604 29.32622833 154.07839966 29.83021545 C157.66064332 32.01092556 160.59292804 32.11067143 164.6875 32.0625 C166.17830078 32.04896484 166.17830078 32.04896484 167.69921875 32.03515625 C168.83810547 32.01775391 168.83810547 32.01775391 170 32 C170 35.42030115 169.94172209 38.00664302 167.50390625 40.578125 C162.27480102 44.23955079 157.26293862 44.97060223 151 44 C147.32366671 42.78789633 144.49023673 41.08901915 141.375 38.8125 C136.92814264 35.62580548 132.37819014 32.67586408 127.7421875 29.7734375 C124.15200407 27.45158098 120.71572542 24.93848417 117.2890625 22.3828125 C114.72313073 20.8327445 112.98326642 20.2648169 110 20 C107.97720031 21.10827003 107.97720031 21.10827003 106.2578125 22.9375 C105.58363281 23.58589844 104.90945313 24.23429687 104.21484375 24.90234375 C103.52519531 25.59457031 102.83554687 26.28679687 102.125 27 C101.44308594 27.66128906 100.76117188 28.32257813 100.05859375 29.00390625 C97.38115457 31.60994705 94.73272751 34.23887966 92.14135742 36.93066406 C88.69106525 40.49133905 85.42125386 43.29271594 81.0625 45.75 C80.10472656 46.30171875 79.14695312 46.8534375 78.16015625 47.421875 C71.05682538 50.96915024 65.29382778 52.5344392 57.3125 52.4375 C56.4354541 52.42992676 55.5584082 52.42235352 54.65478516 52.41455078 C42.10362052 52.09875472 30.76731666 48.12281031 21.375 39.625 C20.199375 38.325625 20.199375 38.325625 19 37 C14.42741751 32.29791082 9.75023561 27.80293954 4.76171875 23.54296875 C3.10184189 22.08919634 1.54066019 20.57858414 0 19 C-4.51316828 20.55301038 -8.21737043 23.01395609 -12.125 25.6875 C-13.71072099 26.74902141 -15.29668203 27.81018428 -16.8828125 28.87109375 C-20.30177078 31.16955808 -23.70899018 33.48398423 -27.10449219 35.81689453 C-30.93870652 38.4501874 -34.78899708 41.05870107 -38.6473999 43.65640259 C-40.20803635 44.71354196 -41.76303082 45.7790617 -43.31207275 46.8531189 C-45.52734081 48.38754114 -47.76084985 49.89134421 -50 51.390625 C-50.98539261 52.08823692 -50.98539261 52.08823692 -51.99069214 52.79994202 C-57.22782686 56.24102678 -61.80304352 56.80161525 -68 56 C-71.72096073 54.90681722 -74.77056755 53.15295497 -78 51 C-78.75 48.9375 -78.75 48.9375 -79 47 C-78 46 -78 46 -76.05859375 45.81640625 C-66.10897176 44.85258296 -59.05030678 39.44546554 -51 34 C-49.71204928 33.14675691 -48.42299892 32.2951712 -47.1328125 31.4453125 C-44.29298434 29.56873131 -41.46225972 27.67927319 -38.63671875 25.78125 C-31.66033999 21.09580087 -24.6643298 16.439798 -17.67086792 11.77990723 C-13.97549564 9.31740635 -10.28073576 6.85398703 -6.5859375 4.390625 C-5.30517877 3.53677938 -4.02441735 2.68293777 -2.74365234 1.82910156 C-1.83824707 1.22549805 -0.9328418 0.62189453 0 0 Z " fill="#82F4A2" transform="translate(201,304)"/>
<path d="M0 0 C0.66 0 1.32 0 2 0 C2 85.47 2 170.94 2 259 C1.34 259 0.68 259 0 259 C-0.15057186 228.02677949 -0.29568493 197.05353919 -0.4332476 166.08025839 C-0.4495173 162.41808875 -0.46583323 158.75591931 -0.48217773 155.09375 C-0.48543066 154.36472173 -0.48868358 153.63569345 -0.49203508 152.88457341 C-0.54471764 141.10230535 -0.60113899 129.32005803 -0.6589582 117.53781419 C-0.7182651 105.4353302 -0.77351669 93.33283252 -0.82505554 81.23031294 C-0.85409601 74.43793271 -0.88496872 67.64557137 -0.92053413 60.85322189 C-0.9538632 54.45278252 -0.98216553 48.05234011 -1.00670624 41.65186119 C-1.01655497 39.30984977 -1.02819913 36.96784505 -1.04183006 34.62585258 C-1.10829047 23.03554678 -1.13592977 11.54736779 0 0 Z " fill="#001400" transform="translate(1,127)"/>
<path d="M0 0 C99.33 0 198.66 0 301 0 C300.34 1.32 299.68 2.64 299 4 C298.67 3.01 298.34 2.02 298 1 C200.65 1 103.3 1 3 1 C2.67 1.66 2.34 2.32 2 3 C1.34 2.67 0.68 2.34 0 2 C0 1.34 0 0.68 0 0 Z " fill="#9EFAB9" transform="translate(106,132)"/>
<path d="M0 0 C-2.76198588 2.15661911 -5.56655324 3.92143519 -8.625 5.625 C-21.9592605 13.61770107 -29.91446049 24.43829991 -35 39 C-35.66 38.67 -36.32 38.34 -37 38 C-34.82274782 25.05107916 -25.37827906 13.61073798 -15 6 C-3.91053082 -1.30351027 -3.91053082 -1.30351027 0 0 Z " fill="#071D0A" transform="translate(41,76)"/>
<path d="M0 0 C0.66182785 0.32342377 1.3236557 0.64684753 2.00553894 0.98007202 C5.67788501 2.23089093 9.0782871 2.30750622 12.91137695 2.31884766 C13.69239273 2.32889328 14.47340851 2.3389389 15.27809143 2.34928894 C17.84814753 2.38006966 20.41809969 2.39714174 22.98828125 2.4140625 C24.77476391 2.43277827 26.56123776 2.45235199 28.34770203 2.4727478 C33.04117642 2.5240318 37.73467946 2.5636775 42.42828369 2.60089111 C47.22114121 2.64095415 52.01387993 2.69203601 56.80664062 2.7421875 C66.20434359 2.8389026 75.60211369 2.92332154 85 3 C85 3.33 85 3.66 85 4 C59.59 4 34.18 4 8 4 C7.67 4.66 7.34 5.32 7 6 C4.69 5.01 2.38 4.02 0 3 C0 2.01 0 1.02 0 0 Z " fill="#0A1E0D" transform="translate(351,437)"/>
<path d="M0 0 C0.66 0.33 1.32 0.66 2 1 C-12.79751097 15.98455816 -12.79751097 15.98455816 -20 22 C-21.33426255 23.14475117 -22.6676287 24.29054816 -24 25.4375 C-24.99 26.283125 -25.98 27.12875 -27 28 C-27.66 27.67 -28.32 27.34 -29 27 C-24.1504072 22.04937401 -19.24457354 17.26930548 -13.98046875 12.76171875 C-11.140634 10.23555411 -8.5020125 7.52687242 -5.859375 4.796875 C-4.01030441 3.00995804 -2.08795607 1.49667647 0 0 Z " fill="#0D3B14" transform="translate(453,122)"/>
<path d="M0 0 C8.25 0 16.5 0 25 0 C25 0.99 25 1.98 25 3 C16.75 3 8.5 3 0 3 C0 2.01 0 1.02 0 0 Z " fill="#96EFB2" transform="translate(316,423)"/>
<path d="M0 0 C10.82533277 4.98156906 19.61486776 16.13249836 24 27 C23.67 27.99 23.34 28.98 23 30 C21.74073591 28.11110387 20.53376027 26.18522322 19.40625 24.21484375 C14.28263685 15.40600885 8.63148964 7.75432642 0 2 C0 1.34 0 0.68 0 0 Z " fill="#051909" transform="translate(484,81)"/>
<path d="M0 0 C0 3 0 3 -1.28515625 4.62573242 C-2.16494141 5.4819519 -2.16494141 5.4819519 -3.0625 6.35546875 C-3.69414062 6.97744141 -4.32578125 7.59941406 -4.9765625 8.24023438 C-5.64429688 8.88283203 -6.31203125 9.52542969 -7 10.1875 C-8.00160156 11.16879883 -8.00160156 11.16879883 -9.0234375 12.16992188 C-10.67578441 13.78686135 -12.33471601 15.39640491 -14 17 C-14.99 16.67 -15.98 16.34 -17 16 C-12.73502369 11.61507124 -8.34080571 7.46548545 -3.69921875 3.48046875 C-2.42270555 2.36828828 -1.19716986 1.19716986 0 0 Z " fill="#0C3913" transform="translate(284,281)"/>
<path d="M0 0 C0.99 0.33 1.98 0.66 3 1 C1.04761147 3.00612399 -0.91137822 5.00492433 -2.875 7 C-3.43058594 7.57234375 -3.98617188 8.1446875 -4.55859375 8.734375 C-6.00134404 10.19450782 -7.4974374 11.60149298 -9 13 C-9.66 13 -10.32 13 -11 13 C-9.46356148 9.31930113 -7.21849055 7.01224796 -4.375 4.25 C-3.55773437 3.45078125 -2.74046875 2.6515625 -1.8984375 1.828125 C-0.95871094 0.92320312 -0.95871094 0.92320312 0 0 Z " fill="#113A19" transform="translate(399,172)"/>
<path d="M0 0 C2.125 0.9375 2.125 0.9375 4 2 C3.0925 2.391875 2.185 2.78375 1.25 3.1875 C-3.19762799 5.66790792 -5.22117555 8.83176333 -8 13 C-8.70703125 11.26171875 -8.70703125 11.26171875 -9 9 C-7.63671875 6.89453125 -7.63671875 6.89453125 -5.6875 4.8125 C-5.05199219 4.11769531 -4.41648437 3.42289062 -3.76171875 2.70703125 C-2 1 -2 1 0 0 Z " fill="#091D0C" transform="translate(430,72)"/>
<path d="M0 0 C3.7602985 0.58107632 6.53035032 1.65199496 9.8125 3.5625 C10.60269531 4.01753906 11.39289063 4.47257812 12.20703125 4.94140625 C12.79871094 5.29074219 13.39039063 5.64007813 14 6 C13.34 6.66 12.68 7.32 12 8 C11.48050781 7.73445313 10.96101563 7.46890625 10.42578125 7.1953125 C6.66979306 5.29301903 2.94774121 3.48040295 -1 2 C-0.67 1.34 -0.34 0.68 0 0 Z " fill="#0A1D0D" transform="translate(470,74)"/>
<path d="M0 0 C0.66 0.33 1.32 0.66 2 1 C0.49389913 5.21708244 -2.11771853 6.94467452 -6 9 C-8.875 8.75 -8.875 8.75 -11 8 C-8 6 -8 6 -4.9375 4.5625 C-1.7770602 3.17919845 -1.7770602 3.17919845 0 0 Z " fill="#0B1D0E" transform="translate(309,433)"/>
<path d="M0 0 C0.53625 0.268125 1.0725 0.53625 1.625 0.8125 C0.92375 1.18375 0.2225 1.555 -0.5 1.9375 C-5.09445253 4.93388209 -9.36051091 8.57482836 -11.375 13.8125 C-11.705 13.1525 -12.035 12.4925 -12.375 11.8125 C-10.0626834 6.91038881 -6.28559896 -0.4962315 0 0 Z " fill="#90F6AC" transform="translate(422.375,322.1875)"/>
<path d="M0 0 C0.33 0.66 0.66 1.32 1 2 C1.66 2.33 2.32 2.66 3 3 C1.68 6.3 0.36 9.6 -1 13 C-1.99 12.67 -2.98 12.34 -4 12 C-3.525625 10.948125 -3.05125 9.89625 -2.5625 8.8125 C-1.30676259 5.89824149 -0.47765619 3.15253086 0 0 Z " fill="#081E0D" transform="translate(508,395)"/>
<path d="M0 0 C0.66 0.33 1.32 0.66 2 1 C-5.11389522 9.81548975 -5.11389522 9.81548975 -10 11 C-6.79239749 7.19364503 -3.59253891 3.45436433 0 0 Z " fill="#13401A" transform="translate(326,241)"/>
<path d="M0 0 C0.33 0.66 0.66 1.32 1 2 C-5.15034169 9.48291572 -5.15034169 9.48291572 -9 12 C-9.66 11.67 -10.32 11.34 -11 11 C-7.37 7.37 -3.74 3.74 0 0 Z " fill="#83E19D" transform="translate(392,227)"/>
<path d="M0 0 C0 3 0 3 -1.75 5.04296875 C-2.4925 5.75066406 -3.235 6.45835937 -4 7.1875 C-4.7425 7.90292969 -5.485 8.61835938 -6.25 9.35546875 C-6.8275 9.89816406 -7.405 10.44085938 -8 11 C-8.99 10.67 -9.98 10.34 -11 10 C-5.555 5.05 -5.555 5.05 0 0 Z " fill="#81E19D" transform="translate(368,250)"/>
<path d="M0 0 C0 3 0 3 -1.96875 5.04296875 C-2.8040625 5.75066406 -3.639375 6.45835937 -4.5 7.1875 C-5.3353125 7.90292969 -6.170625 8.61835938 -7.03125 9.35546875 C-7.6809375 9.89816406 -8.330625 10.44085938 -9 11 C-9.66 10.67 -10.32 10.34 -11 10 C-5.555 5.05 -5.555 5.05 0 0 Z " fill="#7DDE9A" transform="translate(300,314)"/>
<path d="M0 0 C0.66 0.33 1.32 0.66 2 1 C1.09515208 2.15518918 0.1755794 3.29885406 -0.75 4.4375 C-1.26046875 5.07558594 -1.7709375 5.71367187 -2.296875 6.37109375 C-4.19667629 8.18810554 -5.43586908 8.60423197 -8 9 C-7.04270084 7.87411986 -6.08412105 6.7493285 -5.125 5.625 C-4.59132813 4.99851563 -4.05765625 4.37203125 -3.5078125 3.7265625 C-2.38567993 2.44163349 -1.20628025 1.20628025 0 0 Z " fill="#7CDB99" transform="translate(377,241)"/>
<path d="M0 0 C4.29951803 1.59241408 6.39671947 4.35540725 9 8 C8.67 8.99 8.34 9.98 8 11 C7.608125 10.443125 7.21625 9.88625 6.8125 9.3125 C4.96406897 6.84937133 4.96406897 6.84937133 2.3125 4.375 C0 2 0 2 0 0 Z " fill="#05180A" transform="translate(381,73)"/>
<path d="M0 0 C0.33 0.66 0.66 1.32 1 2 C-0.98 4.31 -2.96 6.62 -5 9 C-5.99 8.67 -6.98 8.34 -8 8 C-5.36 5.36 -2.72 2.72 0 0 Z " fill="#83E3A0" transform="translate(356,261)"/>
<path d="M0 0 C-1.44253657 3.36591866 -3.33264727 5.51047079 -6 8 C-6.99 7.67 -7.98 7.34 -9 7 C-7.88121617 5.82737096 -6.75476949 4.66204862 -5.625 3.5 C-4.68527344 2.52546875 -4.68527344 2.52546875 -3.7265625 1.53125 C-2 0 -2 0 0 0 Z " fill="#14431B" transform="translate(365,206)"/>
<path d="M0 0 C0 3 0 3 -1.75 4.82421875 C-2.4925 5.43910156 -3.235 6.05398437 -4 6.6875 C-4.7425 7.31011719 -5.485 7.93273437 -6.25 8.57421875 C-6.8275 9.04472656 -7.405 9.51523438 -8 10 C-8.66 9.67 -9.32 9.34 -10 9 C-6.7 6.03 -3.4 3.06 0 0 Z " fill="#81E19A" transform="translate(470,154)"/>
<path d="M0 0 C0.99 0.33 1.98 0.66 3 1 C0.03 3.64 -2.94 6.28 -6 9 C-6 6 -6 6 -4.6875 4.39453125 C-4.130625 3.87246094 -3.57375 3.35039062 -3 2.8125 C-2.443125 2.28269531 -1.88625 1.75289062 -1.3125 1.20703125 C-0.6628125 0.60955078 -0.6628125 0.60955078 0 0 Z " fill="#082E0D" transform="translate(423,150)"/>
<path d="M0 0 C3.80635497 3.20760251 7.54563567 6.40746109 11 10 C10.01 10 9.02 10 8 10 C8 9.34 8 8.68 8 8 C7.4225 7.7525 6.845 7.505 6.25 7.25 C3.67060021 5.81700012 1.93878408 4.21575324 0 2 C0 1.34 0 0.68 0 0 Z " fill="#0B3D12" transform="translate(229,282)"/>
<path d="M0 0 C0.66 0.33 1.32 0.66 2 1 C-1.96 4.465 -1.96 4.465 -6 8 C-6.66 7.67 -7.32 7.34 -8 7 C-5.36 4.69 -2.72 2.38 0 0 Z " fill="#114117" transform="translate(453,122)"/>
<path d="M0 0 C3.5875213 1.33250791 6.8364623 2.830717 10 5 C10 5.66 10 6.32 10 7 C5.56541027 5.6062718 3.12621626 3.39417765 0 0 Z " fill="#08360F" transform="translate(437,386)"/>
<path d="M0 0 C3.76488042 1.72154788 6.15063897 3.99234114 9 7 C6 7 6 7 4.39453125 5.46875 C3.87246094 4.8190625 3.35039062 4.169375 2.8125 3.5 C2.28269531 2.8503125 1.75289062 2.200625 1.20703125 1.53125 C0.80871094 1.0259375 0.41039062 0.520625 0 0 Z " fill="#093812" transform="translate(205,306)"/>
<path d="M0 0 C3.465 1.98 3.465 1.98 7 4 C6.67 4.66 6.34 5.32 6 6 C2.34683329 4.75023244 1.21934164 4.32901247 -1 1 C-0.67 0.67 -0.34 0.34 0 0 Z " fill="#091D0C" transform="translate(26,428)"/>
<path d="M0 0 C0.99 0.33 1.98 0.66 3 1 C1.35 2.65 -0.3 4.3 -2 6 C-2.99 5.67 -3.98 5.34 -5 5 C-3.35 3.35 -1.7 1.7 0 0 Z " fill="#184723" transform="translate(293,272)"/>
<path d="M0 0 C0 3 0 3 -2.5 5.6875 C-3.325 6.450625 -4.15 7.21375 -5 8 C-5.66 7.67 -6.32 7.34 -7 7 C-4.69 4.69 -2.38 2.38 0 0 Z " fill="#11421B" transform="translate(307,259)"/>
<path d="M0 0 C0.33 2.64 0.66 5.28 1 8 C0.34 8 -0.32 8 -1 8 C-1.66 5.69 -2.32 3.38 -3 1 C-1 0 -1 0 0 0 Z " fill="#081909" transform="translate(4,389)"/>
<path d="M0 0 C1.32 0.66 2.64 1.32 4 2 C1.02588876 3.23921302 -1.85262818 4.30058404 -5 5 C-3.35 3.35 -1.7 1.7 0 0 Z " fill="#7CD997" transform="translate(310,305)"/>
<path d="M0 0 C0.66 0.33 1.32 0.66 2 1 C0.35 2.65 -1.3 4.3 -3 6 C-3.99 5.67 -4.98 5.34 -6 5 C-4.02 3.35 -2.04 1.7 0 0 Z " fill="#7BDB97" transform="translate(344,273)"/>
<path d="M0 0 C0.66 0.33 1.32 0.66 2 1 C-1.465 3.97 -1.465 3.97 -5 7 C-5.66 6.67 -6.32 6.34 -7 6 C-4.69 4.02 -2.38 2.04 0 0 Z " fill="#7FDD99" transform="translate(450,173)"/>
</svg>
